<?xml version="1.0" standalone="no"?>
<!DOCTYPE svg PUBLIC "-//W3C//DTD SVG 20010904//EN"
 "http://www.w3.org/TR/2001/REC-SVG-20010904/DTD/svg10.dtd">
<svg version="1.0" xmlns="http://www.w3.org/2000/svg"
 width="1024.000000pt" height="1024.000000pt" viewBox="0 0 1024.000000 1024.000000"
 preserveAspectRatio="xMidYMid meet">
<metadata>
Created by potrace 1.14, written by Peter Selinger 2001-2017
</metadata>
<g transform="translate(0.000000,1024.000000) scale(0.100000,-0.100000)"
fill="#000000" stroke="none">
<path d="M0 5120 l0 -5120 5120 0 5120 0 0 5120 0 5120 -5120 0 -5120 0 0
-5120z m3900 2585 c485 -76 870 -276 1146 -596 l77 -90 30 38 c16 21 82 90
146 154 269 266 609 428 1041 494 145 22 495 31 643 16 504 -52 941 -263 1307
-632 339 -341 541 -735 616 -1205 16 -99 18 -232 21 -1479 3 -939 0 -1392 -7
-1440 -17 -112 -67 -204 -158 -294 -117 -116 -227 -161 -392 -161 -152 0 -263
44 -373 148 -71 69 -119 139 -149 223 l-23 64 -5 1390 -5 1390 -28 100 c-102
373 -397 667 -764 761 -131 34 -320 42 -453 20 -236 -39 -399 -124 -576 -300
-150 -151 -231 -287 -287 -484 -22 -77 -22 -78 -27 -1472 l-5 -1395 -22 -65
c-60 -173 -215 -320 -388 -365 -76 -19 -214 -19 -290 0 -174 46 -332 197 -391
375 -18 52 -19 136 -24 1450 -5 1394 -5 1395 -27 1472 -52 183 -133 325 -263
462 -227 239 -494 347 -825 332 -77 -3 -163 -13 -210 -25 -301 -74 -567 -291
-705 -576 -60 -123 -88 -226 -100 -375 -6 -65 -10 -666 -10 -1395 0 -1050 -3
-1289 -14 -1331 -42 -159 -185 -313 -347 -376 -68 -26 -229 -36 -312 -18 -150
31 -314 159 -381 299 -19 39 -39 102 -46 139 -8 48 -10 454 -7 1442 3 1249 5
1385 21 1484 75 471 276 864 616 1205 358 360 785 571 1280 631 117 14 547 5
670 -15z"/>
</g>
</svg>
