<?xml version="1.0" encoding="utf-8"?>
<!-- Generator: Adobe Illustrator 27.3.1, SVG Export Plug-In . SVG Version: 6.00 Build 0)  -->
<svg version="1.1" id="Layer_1" xmlns="http://www.w3.org/2000/svg" xmlns:xlink="http://www.w3.org/1999/xlink" x="0px" y="0px"
	 viewBox="0 0 200 60" style="enable-background:new 0 0 200 60;" xml:space="preserve">
<style type="text/css">
	.st0{fill-rule:evenodd;clip-rule:evenodd;fill:#9A9A9A;}
	.st1{fill-rule:evenodd;clip-rule:evenodd;fill:#3AC0C3;}
	.st2{fill:#9A9A9A;}
</style>
<g>
	<path class="st0" d="M178.58,42.12c-0.59,0-1.11-0.22-1.55-0.65c-0.44-0.44-0.65-0.96-0.65-1.55V24.05
		c0.01-2.91,1.05-5.39,3.11-7.42c2.05-2.05,4.52-3.07,7.42-3.07c2.9,0,5.38,1.03,7.44,3.09c2.06,2.06,3.09,4.54,3.09,7.43
		c0,2.9-1.03,5.38-3.09,7.44c-2.06,2.06-4.54,3.09-7.44,3.09h0v-4.52h0c1.67,0,3.1-0.59,4.28-1.77c1.18-1.18,1.77-2.61,1.77-4.27
		c0-1.68-0.59-3.11-1.77-4.3c-1.17-1.17-2.59-1.75-4.28-1.75c-1.68,0-3.11,0.59-4.29,1.75c-1.17,1.19-1.75,2.61-1.75,4.3l0,0.11
		v8.62l0,0v7.13c0,0.59-0.22,1.11-0.66,1.55c-0.44,0.44-0.95,0.65-1.55,0.65H178.58L178.58,42.12z M186.89,30.09
		c-1.25,0-2.27,1.02-2.27,2.27c0,1.25,1.02,2.27,2.27,2.27V30.09z"/>
	<path class="st0" d="M162.19,13.56c2.9,0,5.38,1.03,7.44,3.09c2.06,2.06,3.09,4.54,3.09,7.43v8.32c0,0.62-0.22,1.14-0.66,1.55
		c-0.44,0.44-0.96,0.66-1.55,0.66h-0.06c-0.6,0-1.12-0.22-1.55-0.66c-0.44-0.42-0.66-0.94-0.66-1.55v-8.32v0
		c0-1.66-0.59-3.09-1.77-4.27c-1.18-1.18-2.61-1.77-4.28-1.77c-1.68,0-3.11,0.59-4.29,1.77c-1.17,1.18-1.75,2.61-1.75,4.27
		c0,1.68,0.58,3.11,1.75,4.3c1.18,1.17,2.61,1.75,4.29,1.75h0.03v0c1.25,0,2.27,1.02,2.27,2.27c0,1.25-1.02,2.27-2.27,2.27v-0.06
		h-0.03c-2.89,0-5.38-1.03-7.43-3.09c-2.06-2.06-3.09-4.54-3.09-7.44c0-2.89,1.03-5.38,3.09-7.43
		C156.81,14.59,159.29,13.56,162.19,13.56z"/>
</g>
<path class="st0" d="M121.81,32.4c0,0.62-0.22,1.14-0.66,1.55c-0.44,0.44-0.95,0.66-1.55,0.66h-0.06c-0.59,0-1.11-0.22-1.55-0.66
	c-0.44-0.42-0.65-0.94-0.65-1.55V22.35c0-2.41,0.86-4.48,2.58-6.21c1.72-1.72,3.79-2.58,6.21-2.58c2.9,0,5.09,0.96,6.56,2.89
	c1.46-1.93,3.64-2.89,6.54-2.89c2.42,0,4.49,0.86,6.21,2.58c1.72,1.73,2.58,3.8,2.58,6.21V32.4c0,0.6-0.21,1.12-0.64,1.55
	c-0.44,0.44-0.96,0.66-1.57,0.66h-0.03c-0.62,0-1.14-0.22-1.55-0.66c-0.44-0.42-0.66-0.94-0.66-1.55V22.35
	c0-1.19-0.42-2.21-1.26-3.05c-0.84-0.84-1.86-1.26-3.07-1.26c-1.2,0-2.21,0.42-3.05,1.26c-0.84,0.84-1.27,1.86-1.27,3.05V32.4
	c0,0.62-0.22,1.14-0.66,1.55c-0.42,0.44-0.94,0.66-1.55,0.66h-0.04c-0.61,0-1.14-0.22-1.57-0.66c-0.44-0.42-0.65-0.94-0.65-1.55
	V22.35c0-1.19-0.42-2.21-1.27-3.05c-0.84-0.84-1.85-1.26-3.05-1.26c-1.19,0-2.21,0.42-3.05,1.26c-0.84,0.84-1.26,1.86-1.26,3.05
	V32.4z"/>
<path class="st1" d="M110.73,6.07c0.6,0,1.12,0.21,1.55,0.64c0.44,0.44,0.66,0.97,0.66,1.57V32.4c0,0.62-0.22,1.14-0.66,1.55
	c-0.44,0.44-0.95,0.66-1.55,0.66h-0.05c-0.6,0-1.12-0.22-1.55-0.66c-0.44-0.42-0.66-0.94-0.66-1.55V8.28c0-0.6,0.22-1.13,0.66-1.57
	c0.44-0.42,0.95-0.64,1.55-0.64H110.73z"/>
<path class="st1" d="M103.94,19.7c0.14,0.31,0.22,0.62,0.22,0.94c0,0.26-0.05,0.51-0.14,0.77c-0.21,0.57-0.6,0.99-1.17,1.24
	c-1.7,0.77-3.95,1.78-6.72,3.03c-3.45,1.56-5.47,2.48-6.07,2.76c0.93,1.17,2.37,1.75,4.33,1.75c1.3,0,2.48-0.39,3.54-1.15
	c1.04-0.75,1.76-1.73,2.18-2.92c0.35-1,1.06-1.5,2.11-1.5c0.76,0,1.36,0.32,1.82,0.95c0.27,0.39,0.42,0.8,0.42,1.22
	c0,0.26-0.05,0.52-0.15,0.79c-0.72,2.08-1.98,3.77-3.78,5.05c-1.83,1.33-3.87,1.99-6.14,1.99c-2.9,0-5.38-1.03-7.44-3.09
	c-2.06-2.06-3.09-4.54-3.09-7.44c0-2.89,1.03-5.38,3.09-7.43c2.06-2.06,4.54-3.09,7.44-3.09c2.1,0,4,0.57,5.74,1.72
	C101.84,16.4,103.11,17.87,103.94,19.7L103.94,19.7z M94.38,18.08c-1.68,0-3.11,0.59-4.3,1.77c-1.17,1.18-1.75,2.61-1.75,4.29v0.13
	l10.22-4.59C97.64,18.61,96.25,18.08,94.38,18.08z"/>
<path class="st1" d="M78.54,6.07c0.59,0,1.11,0.21,1.55,0.64c0.44,0.44,0.66,0.97,0.66,1.57v15.86c-0.01,2.9-1.05,5.37-3.11,7.4
	c-2.06,2.05-4.53,3.07-7.42,3.07c-2.9,0-5.38-1.03-7.44-3.09c-2.06-2.06-3.09-4.54-3.09-7.44c0-2.89,1.03-5.38,3.09-7.43
	c2.06-2.06,4.54-3.09,7.44-3.09h0v0c1.25,0,2.27,1.02,2.27,2.27c0,1.25-1.02,2.27-2.27,2.27v-0.02h0c-1.68,0-3.11,0.59-4.3,1.77
	c-1.17,1.18-1.75,2.61-1.75,4.29c0,1.67,0.59,3.09,1.75,4.28c1.19,1.18,2.61,1.77,4.3,1.77c1.67,0,3.09-0.59,4.27-1.77
	c1.19-1.19,1.77-2.61,1.77-4.28l0-0.16v-8.6l0,0V8.28c0-0.6,0.22-1.13,0.66-1.57c0.44-0.42,0.95-0.64,1.55-0.64H78.54z"/>
<path class="st1" d="M46.62,13.56c2.89,0,5.38,1.03,7.43,3.09c2.06,2.06,3.09,4.54,3.09,7.43c0,2.9-1.03,5.38-3.09,7.44
	c-2.06,2.06-4.54,3.09-7.43,3.09c-2.9,0-5.38-1.03-7.44-3.09c-2.06-2.06-3.09-4.54-3.09-7.44c0-2.89,1.03-5.38,3.09-7.43
	C41.24,14.59,43.72,13.56,46.62,13.56L46.62,13.56z M46.62,18.08c-1.68,0-3.11,0.59-4.3,1.77c-1.17,1.18-1.75,2.61-1.75,4.29
	c0,1.67,0.59,3.09,1.75,4.28c1.19,1.18,2.61,1.77,4.3,1.77c1.67,0,3.09-0.59,4.27-1.77c1.19-1.19,1.77-2.61,1.77-4.28
	c0-1.68-0.59-3.11-1.77-4.29C49.71,18.66,48.28,18.08,46.62,18.08z"/>
<path class="st1" d="M6.78,32.4c0,0.62-0.22,1.14-0.66,1.55c-0.44,0.44-0.95,0.66-1.55,0.66H4.51c-0.59,0-1.11-0.22-1.55-0.66
	C2.52,33.54,2.3,33.02,2.3,32.4V22.35c0-2.41,0.86-4.48,2.58-6.21c1.72-1.72,3.79-2.58,6.21-2.58c2.9,0,5.09,0.96,6.56,2.89
	c1.46-1.93,3.64-2.89,6.54-2.89c2.42,0,4.49,0.86,6.21,2.58c1.72,1.73,2.58,3.8,2.58,6.21V32.4c0,0.6-0.21,1.12-0.64,1.55
	c-0.44,0.44-0.96,0.66-1.57,0.66h-0.03c-0.62,0-1.14-0.22-1.55-0.66c-0.44-0.42-0.66-0.94-0.66-1.55V22.35
	c0-1.19-0.42-2.21-1.26-3.05c-0.84-0.84-1.87-1.26-3.07-1.26c-1.2,0-2.21,0.42-3.05,1.26c-0.84,0.84-1.27,1.86-1.27,3.05V32.4
	c0,0.62-0.22,1.14-0.66,1.55c-0.42,0.44-0.94,0.66-1.55,0.66h-0.04c-0.61,0-1.14-0.22-1.57-0.66c-0.44-0.42-0.65-0.94-0.65-1.55
	V22.35c0-1.19-0.42-2.21-1.27-3.05c-0.84-0.84-1.85-1.26-3.05-1.26c-1.19,0-2.21,0.42-3.05,1.26c-0.84,0.84-1.26,1.86-1.26,3.05
	V32.4z"/>
<g>
	<path class="st2" d="M79.51,49.57h-3.18l-0.6,1.78h-1.89l3.08-8.64h2.04l3.06,8.64h-1.96L79.51,49.57z M79,48.08l-1.08-3.4
		l-1.11,3.4H79z"/>
	<path class="st2" d="M85.99,46.2c-0.57,0-0.96,0.24-1.17,0.72c-0.11,0.25-0.16,0.58-0.16,0.97v3.46H83v-6.38h1.61v0.93
		c0.21-0.33,0.42-0.56,0.61-0.71c0.34-0.26,0.78-0.39,1.31-0.39c0.66,0,1.2,0.17,1.62,0.52s0.63,0.92,0.63,1.72v4.3h-1.71v-3.88
		c0-0.34-0.04-0.59-0.13-0.77C86.76,46.36,86.45,46.2,85.99,46.2z"/>
	<path class="st2" d="M90.55,45.65c0.44-0.56,1.2-0.84,2.27-0.84c0.7,0,1.32,0.14,1.86,0.42s0.81,0.8,0.81,1.57v2.93
		c0,0.2,0,0.45,0.01,0.74c0.01,0.22,0.04,0.37,0.1,0.45s0.14,0.14,0.25,0.19v0.25h-1.82c-0.05-0.13-0.09-0.25-0.11-0.36
		s-0.04-0.24-0.05-0.39c-0.23,0.25-0.5,0.46-0.8,0.64c-0.36,0.21-0.77,0.31-1.22,0.31c-0.58,0-1.06-0.17-1.43-0.5
		s-0.57-0.8-0.57-1.4c0-0.79,0.3-1.35,0.91-1.71c0.33-0.19,0.82-0.33,1.46-0.41l0.57-0.07c0.31-0.04,0.53-0.09,0.66-0.15
		c0.24-0.1,0.36-0.26,0.36-0.47c0-0.26-0.09-0.44-0.27-0.54s-0.45-0.15-0.8-0.15c-0.39,0-0.67,0.1-0.84,0.29
		c-0.12,0.14-0.2,0.34-0.23,0.59h-1.61C90.12,46.47,90.28,46.01,90.55,45.65z M91.8,50.14c0.16,0.13,0.35,0.19,0.57,0.19
		c0.36,0,0.69-0.11,0.99-0.32s0.46-0.6,0.47-1.15v-0.62c-0.11,0.07-0.21,0.12-0.32,0.16s-0.25,0.08-0.44,0.11l-0.38,0.07
		c-0.35,0.06-0.6,0.14-0.76,0.23c-0.26,0.15-0.39,0.39-0.39,0.71C91.56,49.81,91.64,50.02,91.8,50.14z"/>
	<path class="st2" d="M97.02,42.71h1.67v8.64h-1.67V42.71z"/>
	<path class="st2" d="M102.92,49.67l1.32-4.71h1.78l-2.19,6.28c-0.42,1.21-0.76,1.96-1,2.25s-0.74,0.44-1.48,0.44
		c-0.15,0-0.27,0-0.36,0s-0.22-0.01-0.4-0.02v-1.34l0.21,0.01c0.16,0.01,0.32,0,0.47-0.02s0.27-0.06,0.38-0.13
		c0.1-0.07,0.19-0.21,0.27-0.42s0.12-0.34,0.1-0.39l-2.34-6.67h1.86L102.92,49.67z"/>
	<path class="st2" d="M111.92,51.35h-5.51v-1.3l3.28-3.73h-3.05v-1.36h5.18v1.39l-3.24,3.63h3.35V51.35z"/>
	<path class="st2" d="M118.46,49.47c-0.04,0.38-0.24,0.76-0.59,1.15c-0.55,0.62-1.31,0.93-2.3,0.93c-0.81,0-1.53-0.26-2.15-0.79
		s-0.93-1.38-0.93-2.55c0-1.11,0.28-1.95,0.84-2.54s1.29-0.88,2.18-0.88c0.53,0,1.01,0.1,1.44,0.3s0.78,0.51,1.05,0.94
		c0.25,0.38,0.41,0.82,0.49,1.32c0.04,0.29,0.06,0.71,0.05,1.27h-4.37c0.02,0.64,0.22,1.09,0.6,1.35c0.23,0.16,0.51,0.24,0.83,0.24
		c0.34,0,0.62-0.1,0.84-0.29c0.12-0.11,0.22-0.25,0.31-0.44H118.46z M116.81,47.52c-0.03-0.44-0.16-0.78-0.4-1s-0.54-0.34-0.89-0.34
		c-0.39,0-0.69,0.12-0.9,0.36s-0.35,0.57-0.4,0.98H116.81z"/>
	<path class="st2" d="M122.88,46.5c-0.67,0-1.12,0.22-1.35,0.66c-0.13,0.25-0.19,0.62-0.19,1.14v3.05h-1.68v-6.39h1.59v1.11
		c0.26-0.43,0.48-0.72,0.67-0.87c0.31-0.26,0.72-0.39,1.22-0.39c0.03,0,0.06,0,0.08,0s0.07,0,0.14,0.01v1.71
		c-0.11-0.01-0.2-0.02-0.28-0.02S122.93,46.5,122.88,46.5z"/>
</g>
</svg>
